This is a stereoscopic 3D rip of Megamind, for new 3D TVs or computers with Nvidia 3D Vision. Tested with Stereoscopic Player. Enjoy!

Title: Megamind (2010)
Rated: PG
Runtime: 95 Minutes
Genre: Animation | Action | Comedy

Description:
After super-villain Megamind (Ferrell) kills his good-guy nemesis, Metro Man (Pitt), he becomes bored since there is no one left to fight. He creates a new foe, Titan (Hill), who, instead of using his powers for good, sets out to destroy the world, positioning Megamind to save the day for the first time in his life.
-From IMDB Page: http://www.imdb.com/title/tt1001526/

General
Unique ID : 217748155768635732166373502937934187782 (0xA3D0C4F45150310EB5E537FBA979CD06)
Complete name : [filepath]\Megamind 3D.mkv
Format : Matroska
File size : 5.01 GiB
Duration : 1h 35mn
Overall bit rate : 7 478 Kbps
Encoded date : UTC 2011-04-14 16:24:42
Writing application : mkvmerge v4.5.0 ('Speed of Light') built on Feb 1 2011 02:10:32
Writing library : libebml v1.2.0 + libmatroska v1.1.0

Video
ID : 1
Format : AVC
Format/Info : Advanced Video Codec
Format profile : High@L4.1
Format settings, CABAC : Yes
Format settings, ReFrames : 4 frames
Codec ID : V_MPEG4/ISO/AVC
Duration : 1h 35mn
Bit rate : 6 689 Kbps
Width : 1 920 pixels
Height : 1 080 pixels
Display aspect ratio : 16:9
Frame rate : 23.976 fps
Color space : YUV
Chroma subsampling : 4:2:0
Bit depth : 8 bits
Scan type : Progressive
Bits/(Pixel*Frame) : 0.135
Stream size : 4.48 GiB (89%)
Writing library : x264 core 114 r1924 08d04a4
Language : English

Audio
ID : 2
Format : AC-3
Format/Info : Audio Coding 3
Mode extension : CM (complete main)
Codec ID : A_AC3
Duration : 1h 35mn
Bit rate mode : Constant
Bit rate : 640 Kbps
Channel(s) : 6 channels
Channel positions : Front: L C R, Side: L R, LFE
Sampling rate : 48.0 KHz
Bit depth : 16 bits
Compression mode : Lossy
Stream size : 439 MiB (9%)
Language : English